# xmcd
#
# Track frame offsets:
#	150
#	16352
#	34277
#	51350
#	67729
#	89298
#	105189
#	121517
#	141843
#	166186
#	185141
#	209876
#	227721
#	244793
#
# Disc length: 3478 seconds
#
# Revision: 0
# Processed by: cddbd v1.5.2PL0 Copyright (c) Steve Scherf et al.
# Submitted via: audiograbber 1.83.01
#
DISCID=bb0d940e
DTITLE=JonesTM - HC200827
DYEAR=2008
DGENRE=Country
TTITLE0=Phil Vassar - I Would
TTITLE1=Billy Currington - Don't
TTITLE2=Kid Rock - All Summer Long [Radio Edit]
TTITLE3=Toby Keith - She Never Cried In Front Of Me [Radio Edit]
TTITLE4=Alan Jackson - Good Time [Summer Fun Too Hot To Fish Mix]
TTITLE5=Trisha Yearwood - They Call It Falling For A Reason [Radio Edit]
TTITLE6=Ashanti - Good Good [Album Version]
TTITLE7=Buddy Guy Feat. Derek Trucks - Skin Deep
TTITLE8=Isaiah D.Thomas - Said He Would Be With Me
TTITLE9=Charlie Wilson - Homeless [Album Version]
TTITLE10=Angella Christie - I'm Still Here [Album Version]
TTITLE11=Deborah Flores - Sneakin [Album Version]
TTITLE12=Kenny G - Tango [Radio Edit]
TTITLE13=Shilts - Back On The Hudson
EXTD=
EXTT0=
EXTT1=
EXTT2=
EXTT3=
EXTT4=
EXTT5=
EXTT6=
EXTT7=
EXTT8=
EXTT9=
EXTT10=
EXTT11=
EXTT12=
EXTT13=
PLAYORDER=
